Coordinates
version=1
nRows=11
nColumns=63
inDegrees=yes

Units are S.I. units (second, meters, Newtons, ...)
If the header above contains a line with 'inDegrees', this indicates whether rotational values are in degrees (yes) or radians (no).

endheader
time	pelvis_tilt	pelvis_list	pelvis_rotation	pelvis_tx	pelvis_ty	pelvis_tz	hip_flexion_r	hip_adduction_r	hip_rotation_r	knee_angle_r	knee_angle_r_beta	ankle_angle_r	subtalar_angle_r	mtp_angle_r	hip_flexion_l	hip_adduction_l	hip_rotation_l	knee_angle_l	knee_angle_l_beta	ankle_angle_l	subtalar_angle_l	mtp_angle_l	L5_S1_Flex_Ext	L5_S1_Lat_Bending	L5_S1_axial_rotation	L4_L5_Flex_Ext	L4_L5_Lat_Bending	L4_L5_axial_rotation	L3_L4_Flex_Ext	L3_L4_Lat_Bending	L3_L4_axial_rotation	L2_L3_Flex_Ext	L2_L3_Lat_Bending	L2_L3_axial_rotation	L1_L2_Flex_Ext	L1_L2_Lat_Bending	L1_L2_axial_rotation	L1_T12_Flex_Ext	L1_T12_Lat_Bending	L1_T12_axial_rotation	Abs_r3	Abs_r2	Abs_r1	Abs_t1	Abs_t2	neck_flexion	neck_bending	neck_rotation	arm_flex_r	arm_add_r	arm_rot_r	elbow_flex_r	pro_sup_r	wrist_flex_r	wrist_dev_r	arm_flex_l	arm_add_l	arm_rot_l	elbow_flex_l	pro_sup_l	wrist_flex_l	wrist_dev_l
0.607843	-0.605674	-4.094247	88.530747	0.229957	0.810421	0.693207	6.833935	-0.947837	-3.165671	6.492410	0.113314	23.083594	10.870870	0.000000	5.810998	-0.130021	-4.147118	2.304232	0.040216	21.062469	-3.846050	0.000000	0.266792	0.131408	0.663080	0.495459	0.174772	0.704522	0.438312	0.319505	0.704522	0.304916	0.319505	0.580195	0.247743	0.267967	0.538752	0.152445	0.203551	0.497310	1.905666	1.486512	3.687851	0.000000	0.000000	28.253066	-0.326414	8.082860	10.511496	-8.884263	44.467467	25.924603	78.840200	-6.760230	0.792404	12.524838	-9.974217	58.865330	31.615928	70.548403	-3.895095	-5.206613
0.627451	-0.513942	-4.020990	88.542669	0.230009	0.810247	0.692196	6.698676	-0.851202	-2.989378	6.500119	0.113448	22.936580	10.512140	0.000000	5.667887	-0.236480	-4.197601	2.210230	0.038576	21.341305	-3.434184	0.000000	0.263756	0.149728	0.627731	0.489820	0.199139	0.666965	0.433324	0.364050	0.666965	0.301446	0.364050	0.549265	0.244923	0.305326	0.510032	0.150710	0.231929	0.470799	1.883979	1.693759	3.491254	0.000000	0.000000	28.265066	-0.245901	8.683407	10.048064	-9.568566	46.966515	24.070099	75.685165	-7.943053	0.478251	12.620668	-9.540994	64.707171	28.071938	66.231545	-4.901230	-5.789951
0.647059	-0.449298	-3.871749	88.469496	0.230424	0.810229	0.690763	6.452798	-0.757358	-2.649730	6.472948	0.112974	22.810644	10.095338	0.000000	5.383764	-0.334463	-4.340016	2.068150	0.036096	21.608190	-2.958414	0.000000	0.256868	0.160517	0.605207	0.477029	0.213488	0.643032	0.422008	0.390282	0.643032	0.293574	0.390282	0.529556	0.238528	0.327327	0.491731	0.146774	0.248641	0.453905	1.834782	1.815804	3.365980	0.000000	0.000000	28.268956	-0.153048	9.194828	9.577309	-10.142425	51.396664	22.099640	71.412238	-8.586867	0.173488	12.709848	-9.212022	72.008408	24.560159	61.097962	-5.950452	-6.317823
0.666667	-0.446412	-3.630085	88.236188	0.231263	0.810373	0.688973	6.101974	-0.703543	-2.059959	6.430692	0.112237	22.719601	9.612413	0.000000	4.943050	-0.382342	-4.691814	1.880104	0.032814	21.872234	-2.373402	0.000000	0.243012	0.159651	0.607742	0.451298	0.212336	0.645725	0.399245	0.388176	0.645725	0.277739	0.388176	0.531774	0.225661	0.325560	0.493790	0.138857	0.247300	0.455806	1.735811	1.806005	3.380076	0.000000	0.000000	28.260979	-0.019621	9.615333	9.125181	-10.582584	57.585229	20.075940	65.924344	-8.697626	0.039134	12.759839	-8.991167	80.416553	21.215178	55.219555	-7.090986	-6.646415
0.686275	-0.495639	-3.303197	87.944858	0.232396	0.810657	0.686917	5.641872	-0.688516	-1.377107	6.363953	0.111072	22.676501	9.133610	0.000000	4.373361	-0.387458	-5.093744	1.661500	0.028999	22.129216	-1.768594	0.000000	0.221085	0.147399	0.622328	0.410577	0.196041	0.661223	0.363220	0.358387	0.661223	0.252678	0.358387	0.544537	0.205299	0.300577	0.505641	0.126328	0.228322	0.466746	1.579188	1.667412	3.461200	0.000000	0.000000	28.241410	0.112560	9.861827	8.736433	-10.872808	65.164424	17.957599	59.989530	-8.310328	-0.407768	12.832753	-8.917382	89.567770	18.125876	48.451258	-8.237487	-7.031928
0.705882	-0.605711	-2.915674	87.571865	0.233814	0.811031	0.684674	5.112013	-0.723492	-0.582877	6.283075	0.109660	22.693990	8.676963	0.000000	3.712754	-0.338510	-5.615199	1.427735	0.024919	22.396649	-1.098312	0.000000	0.193606	0.123323	0.658155	0.359546	0.164019	0.699289	0.318075	0.299847	0.699289	0.221272	0.299847	0.575885	0.179783	0.251479	0.534751	0.110626	0.191027	0.493616	1.382908	1.395050	3.660458	0.000000	0.000000	28.207827	0.235006	9.937215	8.412244	-10.982360	73.904313	15.777975	53.559926	-7.527252	-0.989591	12.915177	-8.965401	99.075336	15.373337	41.181866	-9.341144	-7.306942
0.725490	-0.768373	-2.483279	87.137321	0.235455	0.811472	0.682331	4.532020	-0.803424	0.279624	6.186212	0.107970	22.769551	8.263212	0.000000	2.991343	-0.239895	-6.212907	1.195629	0.020868	22.648661	-0.435434	0.000000	0.161629	0.088626	0.711960	0.300160	0.117873	0.756458	0.265540	0.215486	0.756458	0.184725	0.215486	0.622965	0.150088	0.180727	0.578468	0.092355	0.137282	0.533970	1.154497	1.002559	3.959709	0.000000	0.000000	28.161531	0.336030	9.814422	8.233226	-10.899565	83.612344	13.531751	46.777723	-6.435241	-1.727525	12.999585	-9.099407	108.603371	12.971432	33.915380	-10.244984	-7.500660
0.745098	-0.981558	-2.019554	86.627057	0.237303	0.811963	0.679948	3.921774	-0.928077	1.197091	6.071839	0.105974	22.892981	7.932635	0.000000	2.224000	-0.091876	-6.912934	0.966123	0.016862	22.867269	0.225476	0.000000	0.126434	0.044337	0.786659	0.234800	0.058969	0.835825	0.207718	0.107802	0.835825	0.144501	0.107802	0.688327	0.117406	0.090413	0.639161	0.072244	0.068679	0.589994	0.903102	0.501553	4.375162	0.000000	0.000000	28.104984	0.423933	9.514701	8.197837	-10.601860	93.774416	11.253073	39.929540	-4.951939	-2.441918	13.090204	-9.318884	117.791090	10.986280	26.699564	-11.013344	-7.557946
0.764706	-1.222211	-1.551720	86.146636	0.239196	0.812472	0.677625	3.302208	-1.081163	2.091410	5.937351	0.103626	23.032396	7.623148	0.000000	1.476210	0.085881	-7.666180	0.792017	0.013823	23.057474	0.923644	0.000000	0.089952	-0.006381	0.868387	0.167050	-0.008486	0.922661	0.147783	-0.015514	0.922661	0.102806	-0.015514	0.759838	0.083530	-0.013012	0.705564	0.051399	-0.009884	0.651290	0.642520	-0.072180	4.829706	0.000000	0.000000	28.043788	0.473575	9.050782	8.292057	-10.141918	104.191098	9.020529	32.841410	-3.410305	-3.193406	13.171099	-9.594424	126.077175	9.431070	20.963640	-11.412159	-7.389961
0.784314	-1.470736	-1.098240	85.699727	0.241087	0.812973	0.675416	2.696104	-1.242480	2.983177	5.791349	0.101078	23.156889	7.281601	0.000000	0.767088	0.276730	-8.410353	0.667127	0.011644	23.188188	1.561893	0.000000	0.054253	-0.059874	0.951187	0.100753	-0.079633	1.010636	0.089132	-0.145578	1.010636	0.062006	-0.145578	0.832289	0.050379	-0.122095	0.772839	0.031000	-0.092745	0.713390	0.387524	-0.677308	5.290217	0.000000	0.000000	27.983514	0.488384	8.481125	8.467399	-9.550048	114.313020	6.893701	25.797935	-1.792598	-3.904013	13.210943	-9.946808	133.263443	8.318900	16.186858	-11.526447	-7.007411
0.803922	-1.718566	-0.672936	85.298682	0.242897	0.813438	0.673385	2.129341	-1.409368	3.762856	5.659508	0.098777	23.279336	7.015813	0.000000	0.112618	0.472098	-9.216293	0.584175	0.010196	23.272252	2.261738	0.000000	0.019904	-0.113572	1.025829	0.036963	-0.151051	1.089943	0.032700	-0.276139	1.089943	0.022748	-0.276139	0.897600	0.018483	-0.231596	0.833486	0.011373	-0.175923	0.769372	0.142171	-1.284749	5.705354	0.000000	0.000000	27.929766	0.474374	7.880610	8.690848	-8.874297	123.865318	4.924194	19.020262	-0.260754	-4.652776	13.149658	-10.379852	138.885926	7.643214	12.473562	-11.404015	-6.425760
